<?xml version="1.0" encoding="UTF-8" standalone="no"?>
<!-- Created with Inkscape (http://www.inkscape.org/) -->

<svg
   version="1.1"
   id="svg32"
   width="971.87085"
   height="971.09753"
   viewBox="0 0 971.87085 971.09755"
   sodipodi:docname="image1.jpg"
   xml:space="preserve"
   xmlns:inkscape="http://www.inkscape.org/namespaces/inkscape"
   xmlns:sodipodi="http://sodipodi.sourceforge.net/DTD/sodipodi-0.dtd"
   xmlns="http://www.w3.org/2000/svg"
   xmlns:svg="http://www.w3.org/2000/svg"><defs
     id="defs36" /><sodipodi:namedview
     id="namedview34"
     pagecolor="#ffffff"
     bordercolor="#000000"
     borderopacity="0.25"
     inkscape:showpageshadow="2"
     inkscape:pageopacity="0.0"
     inkscape:pagecheckerboard="0"
     inkscape:deskcolor="#d1d1d1"
     showgrid="false"
     inkscape:lockguides="true"
     inkscape:zoom="0.41068854"
     inkscape:cx="1229.6423"
     inkscape:cy="472.37744"
     inkscape:window-width="1920"
     inkscape:window-height="1008"
     inkscape:window-x="0"
     inkscape:window-y="0"
     inkscape:window-maximized="1"
     inkscape:current-layer="g38" /><g
     inkscape:groupmode="layer"
     inkscape:label="Image"
     id="g38"
     transform="translate(-758.51196,-89.609328)"><path
       style="fill:#ffffff;fill-opacity:1"
       d="m 1248.822,1059.7183 c -6.9849,-2.0386 -9.2648,-3.5204 -28.5,-18.5232 -10.8127,-8.4336 -18.908,-14.0542 -20.274,-14.0765 -1.2507,-0.02 -11.8458,4.6941 -23.5446,10.4767 -23.7941,11.7611 -29.3202,13.3938 -39.17,11.573 -6.9892,-1.2921 -14.8257,-4.7643 -19.3084,-8.5554 -1.8133,-1.5335 -9.5941,-11.0494 -17.2907,-21.1464 -7.6965,-10.097 -14.7805,-18.7793 -15.7422,-19.2939 -1.2081,-0.64657 -7.6078,0.2729 -20.7093,2.9755 -10.4284,2.1512 -21.7039,4.3638 -25.0566,4.9169 -14.1669,2.3372 -29.8681,-4.6331 -37.9146,-16.83157 -1.32493,-2.0085 -6.26743,-13.1012 -10.98343,-24.6503 -4.7159,-11.5491 -9.1216,-21.532 -9.7903,-22.1841 -0.7709,-0.7518 -10.2994,-1.7732 -26.0322,-2.79046 -29.3544,-1.8981 -32.5885,-2.7669 -41.7006,-11.2031 -9.8444,-9.11421 -11.3831,-13.39164 -15.04478,-41.82388 -2.3378,-18.15174 -3.4988,-24.39794 -4.7646,-25.63307 -0.9206,-0.89819 -10.8987,-4.67364 -22.1737,-8.38989 -24.6924,-8.13864 -28.1484,-9.79005 -34.3398,-16.40917 -6.3659,-6.80573 -9.9762,-14.7655 -10.4717,-23.0878 -0.3331,-5.59438 3.8711,-42.92755 5.4313,-48.23007 0.2832,-0.9625 0.2418,-2.61075 -0.092,-3.66278 -0.3339,-1.05203 -9.0267,-7.41745 -19.3174,-14.14537 -10.2906,-6.72793 -20.6612,-14.07968 -23.0457,-16.33722 -8.5189,-8.06543 -13.3953,-22.60969 -11.3022,-33.70986 0.5595,-2.96712 5.0944,-15.05469 10.0775,-26.86127 4.9831,-11.80657 9.0601,-22.0189 9.0601,-22.69407 0,-0.67516 -6.8269,-8.91148 -15.1709,-18.30292 -8.344,-9.39144 -16.1671,-18.54141 -17.3847,-20.33327 -3.9254,-5.77671 -5.7859,-12.63246 -5.7541,-21.20324 0.045,-12.13815 2.0037,-16.04265 19.2971,-38.46665 8.2569,-10.70666 15.0126,-20.04807 15.0126,-20.75869 0,-0.71063 -5.0609,-11.30064 -11.2464,-23.53335 l -11.2464,-22.24131 v -10.5 c 0,-8.84345 0.3592,-11.28883 2.2955,-15.5 4.1934,-9.12005 6.5508,-11.50201 26.4303,-26.70554 10.8511,-8.29875 19.965,-15.8313 20.2531,-16.739 0.2881,-0.9077 -1.5026,-11.72572 -3.9793,-24.04004 -2.4767,-12.31433 -4.5031,-24.9181 -4.5031,-28.00838 0,-11.41566 6.7669,-24.28774 16.0494,-30.52931 2.4721,-1.66225 14.2696,-7.00416 26.2166,-11.8709 l 21.722,-8.84863 0.91,-3.6291 c 0.5005,-1.99601 1.4257,-13.18553 2.0559,-24.8656 0.6496,-12.03864 1.7668,-23.3275 2.5796,-26.0643 2.7021,-9.09918 10.6953,-18.27188 19.96648,-22.91301 5.5284,-2.76749 6.8966,-3.03351 32.3207,-6.28381 13.9312,-1.78102 22.9417,-3.3736 23.6952,-4.18811 0.6688,-0.72285 4.6388,-11.56503 8.8222,-24.09374 9.6964,-29.0389 12.9109,-33.82484 27.073,-40.30847 8.50643,-3.89435 13.53913,-3.9581 39.21433,-0.49679 12.719,1.71467 23.8927,2.82315 24.8305,2.46329 0.9377,-0.35986 7.9483,-10.00369 15.5789,-21.43074 7.6307,-11.42705 15.376,-21.9221 17.2118,-23.32232 1.8358,-1.40023 6.0188,-3.80129 9.2956,-5.33568 5.2845,-2.47457 7.0878,-2.78824 15.9578,-2.77583 l 10,0.014 21.7644,9.23601 c 11.9705,5.07981 22.5455,9.23011 23.5,9.22289 0.9546,-0.007 9.8356,-7.20762 19.7356,-16.00089 10.8178,-9.60846 20.1946,-17.0847 23.5,-18.73688 5.0154,-2.50687 6.4692,-2.74649 16.5,-2.71954 9.0427,0.0243 11.8007,0.40362 15.5,2.13172 2.475,1.15618 12.9926,8.68038 23.3724,16.72044 10.3799,8.04005 19.6973,14.61828 20.7054,14.61828 1.0081,0 11.8885,-4.99464 24.1788,-11.0992 19.9312,-9.89983 23.0572,-11.15629 28.9285,-11.62759 10.6874,-0.85788 22.3463,2.87726 29.346,9.40154 1.6671,1.55389 9.4567,11.26275 17.3101,21.57525 11.5156,15.12149 14.7415,18.75 16.6692,18.75 1.3147,0 12.4252,-2.07173 24.69,-4.60385 18.1819,-3.75374 23.4717,-4.49761 28.6475,-4.02848 10.8534,0.98374 22.3163,7.53364 27.9722,15.98337 3.0306,4.52763 2.9241,4.2894 13.2474,29.64896 3.9181,9.625 7.5477,17.94441 8.0657,18.48758 0.5181,0.54316 12.3453,1.72264 26.2828,2.62106 23.3071,1.50238 25.799,1.8432 31.0484,4.24642 10.4842,4.79983 17.7261,12.30017 21.1299,21.88396 0.8323,2.34354 2.8774,14.83598 4.5446,27.76098 1.6671,12.925 3.4761,24.03614 4.02,24.69143 0.5438,0.65529 11.264,4.61637 23.8226,8.80241 13.8686,4.62268 24.6673,8.82544 27.5037,10.70415 9.5464,6.32328 16.5185,19.21404 16.5109,30.52703 0,3.17624 -1.3154,15.43574 -2.9183,27.24333 -2.0462,15.0727 -2.6194,22.01974 -1.9239,23.31921 0.5448,1.01797 10.2017,7.92435 21.4597,15.3475 24.9285,16.43693 28.576,20.64013 31.3562,36.13318 1.6419,9.14967 0.3626,14.12889 -9.9207,38.61482 -4.977,11.85089 -9.0432,22.1253 -9.036,22.83201 0.01,0.70671 7.2083,9.38493 16.0024,19.28493 8.7941,9.9 17.1186,20.26566 18.499,23.0348 5.2478,10.52797 5.3951,23.34057 0.39,33.91806 -1.0533,2.22593 -8.4377,12.46362 -16.4098,22.75043 -7.9721,10.28681 -14.4947,19.12687 -14.4947,19.64458 0,0.51771 5.0625,11.22623 11.25,23.79671 l 11.25,22.85542 v 10.5 c 0,9.25516 -0.3124,11.16629 -2.6352,16.12001 -3.8109,8.12758 -7.6138,11.80914 -27.7659,26.87999 -9.9284,7.425 -18.3051,14.4 -18.6149,15.5 -0.3098,1.1 1.5233,12.125 4.0736,24.5 5.3796,26.10432 5.5627,32.68894 1.175,42.27276 -3.0399,6.64019 -10.613,15.1154 -15.9303,17.82809 -2.0608,1.05134 -12.6469,5.55318 -23.5246,10.00408 -10.8777,4.4509 -20.4105,8.69701 -21.184,9.43579 -1.0371,0.99065 -1.7464,7.06755 -2.702,23.15126 -0.7126,11.99441 -1.5535,23.61111 -1.8685,25.81488 -1.4943,10.45265 -10.9411,22.92497 -21.15,27.92377 -4.839,2.36945 -9.1478,3.21016 -29.7657,5.80774 -16.1178,2.03064 -24.6726,3.52655 -25.8124,4.51361 -0.9377,0.812 -4.9267,11.2125 -8.8645,23.11224 -3.9377,11.8997 -8.2012,23.4617 -9.4744,25.6933 -4.9127,8.6108 -15.655,16.0669 -26.4562,18.3629 -4.8047,1.0213 -8.4847,0.766 -29.1094,-2.0193 -12.9851,-1.7537 -24.6851,-2.9028 -26,-2.5535 -1.7193,0.4566 -6.0318,6.1418 -15.3579,20.24637 -7.8949,11.94 -14.857,21.3105 -17.7984,23.955 -7.0335,6.3237 -14.1521,8.8136 -25.2343,8.826 -9.8541,0.011 -7.2699,0.8604 -40,-13.1466 -7.15,-3.0599 -14.0045,-5.4937 -15.2323,-5.4086 -1.3295,0.092 -9.7823,6.8267 -20.9013,16.6523 -14.8114,13.0885 -19.8259,16.9338 -24.2677,18.6093 -6.9274,2.613 -18.9271,3.3567 -25.0987,1.5554 z m 30.4894,-72.14547 c 82.2004,-7.2511 157.7399,-37.1009 221.5106,-87.5309 11.3519,-8.97711 35.6927,-30.68794 39.4177,-35.15867 1.0548,-1.26592 5.4043,-6.00396 9.6656,-10.52898 16.0465,-17.0394 35.1184,-42.46776 48.7519,-65.00031 30.9383,-51.13289 50.1416,-107.40778 57.3259,-167.9926 2.7788,-23.43357 2.9992,-66.34064 0.4561,-88.77978 -13.2303,-116.73654 -70.0344,-217.85572 -161.3505,-287.22669 -115.8898,-88.03906 -268.2908,-109.04816 -403.2396,-55.58826 -69.6623,27.59665 -130.45173,73.67921 -177.18043,134.31495 -56.64728,73.50616 -87.82778,170.6771 -84.39218,263 2.3538,63.25185 16.1863,117.99519 43.7135,173 32.34748,64.63658 79.68128,118.48274 139.33201,158.50159 59.8163,40.12995 126.9941,63.60785 198.5,69.37345 17.3022,1.3951 49.3921,1.2126 67.4894,-0.3838 z m -24.5064,-42.1515 c -0.01,-1.0119 -1.5467,-17.58974 -3.4162,-36.83974 -1.8696,-19.25 -3.2491,-35.15028 -3.0657,-35.33395 0.1834,-0.18367 11.9582,-1.42953 26.1662,-2.76857 20.817,-1.96191 27.6129,-2.98492 35.0012,-5.26888 l 9.1685,-2.83425 8.3259,8.36945 c 9.569,9.61898 8.6099,10.10161 11.3472,-5.70996 l 1.6526,-9.54616 9.0378,-2.75133 c 4.9708,-1.51323 9.2373,-2.55185 9.4811,-2.30804 0.2438,0.24381 -1.6252,9.13135 -4.1535,19.75008 -2.5282,10.61874 -4.4688,19.80436 -4.3124,20.41249 0.1563,0.60813 7.5968,7.50402 16.5343,15.32421 8.9375,7.82018 16.25,14.3569 16.25,14.52604 0,0.16914 -4.2592,1.56531 -9.465,3.10261 l -9.4649,2.79508 -9.5577,-8.77338 c -5.2568,-4.82537 -9.6965,-8.5961 -9.8661,-8.37942 -0.1696,0.21669 -1.1364,5.11898 -2.1484,10.89398 -1.0121,5.775 -2.1271,11.33218 -2.4778,12.34938 -0.4361,1.2644 -3.4655,2.7628 -9.5789,4.7379 -4.9177,1.5887 -9.2263,2.894 -9.5748,2.9007 -0.3485,0.01 1.8115,-9.7369 4.7999,-21.65236 4.4142,-17.60018 5.1896,-21.88357 4.1336,-22.83283 -5.9861,-5.38074 -27.7011,-24.35173 -29.2137,-25.52204 -1.8587,-1.43816 -1.895,-1.25787 -1.2627,6.26925 0.4903,5.83665 0.3455,7.75513 -0.5863,7.77077 -0.6805,0.0114 -7.5372,0.67311 -15.2372,1.4704 -7.7,0.7973 -14.3991,1.46295 -14.8869,1.47923 -0.8082,0.027 -0.3135,12.69563 0.5262,13.47738 0.1984,0.18467 6.421,-0.26769 13.8281,-1.00524 7.4071,-0.73756 13.5399,-1.25135 13.6284,-1.14178 0.089,0.10958 0.4732,3.62445 0.8549,7.81081 l 0.694,7.61157 -4.8224,0.61683 c -2.6523,0.33925 -8.4951,0.91293 -12.984,1.27484 -4.489,0.36191 -8.58,0.93413 -9.0913,1.2716 -0.5653,0.37315 -0.375,6.03787 0.4858,14.45617 0.7785,7.6134 1.2695,13.97166 1.0913,14.12956 -0.1783,0.1578 -4.2616,0.6066 -9.0741,0.9972 -8.0832,0.656 -8.7513,0.57 -8.767,-1.1296 z m -60.1291,-2.1894 c -6.3395,-1.65426 -12.8479,-5.27626 -16.264,-9.05106 -1.4692,-1.6234 -1.1385,-2.1006 4.6644,-6.7315 l 6.2457,-4.98423 3.3824,2.29777 c 6.9297,4.70762 19.4708,5.96546 23.1176,2.31868 2.2759,-2.27592 2.5909,-5.80958 0.7432,-8.33653 -0.6913,-0.94533 -5.1147,-2.7802 -9.8299,-4.07748 -4.7152,-1.29728 -9.946,-3.06867 -11.6241,-3.93642 -5.9653,-3.08478 -10.268,-10.498 -10.2836,-17.71807 -0.017,-7.92054 5.3546,-16.99795 12.1336,-20.5035 10.6979,-5.53211 29.0121,-3.0454 38.7337,5.25927 l 3.3729,2.88131 -6.3296,5.18367 c -5.5846,4.57363 -6.5155,5.0154 -7.9095,3.75385 -4.3775,-3.96163 -13.8693,-5.70037 -18.3225,-3.3564 -2.881,1.51649 -3.6504,2.79093 -3.6689,6.07725 -0.019,3.46345 2.4521,5.02645 11.3733,7.19249 15.4708,3.75627 20.9586,9.398 21.0007,21.58954 0.066,19.096 -16.833,28.32656 -40.5354,22.14136 z m -72.1039,-17.73917 c -4.2625,-1.37226 -7.7477,-2.81365 -7.7449,-3.20309 0.01,-1.16994 21.8875,-69.43406 22.427,-69.97355 0.2744,-0.27439 10.0769,2.54168 21.7834,6.25793 11.7065,3.71625 22.297,6.9782 23.5345,7.24876 1.2375,0.27056 2.25,1.06707 2.25,1.77002 0,1.30718 -3.9104,14.50035 -4.2902,14.47445 -0.1154,-0.008 -7.099,-2.21699 -15.5191,-4.90915 l -15.3093,-4.89483 -0.8434,2.21817 c -1.6714,4.39618 -3.35,10.6196 -2.9482,10.93088 0.2256,0.17483 5.8102,2.01476 12.4102,4.08875 6.6,2.07398 12.3425,4.09305 12.7611,4.48681 0.622,0.58509 -0.7331,5.61142 -3.7129,13.77169 -0.301,0.82434 -3.6753,0.14235 -11.2392,-2.27166 -17.6685,-5.63885 -15.2501,-6.71875 -20.1726,9.00755 -2.339,7.47236 -4.5641,13.56499 -4.9446,13.5392 -0.3805,-0.0258 -4.1793,-1.16967 -8.4418,-2.54193 z m -48.5,-35.91549 c -5.3368,-2.42188 -6.5127,-4.0739 -3.675,-5.16285 2.2768,-0.87369 11.5655,3.70156 11.212,5.5226 -0.4436,2.28556 -1.8564,2.21812 -7.537,-0.35975 z m 339.2229,-0.53948 c -0.9358,-1.51423 0.9598,-3.39666 5.4676,-5.42936 3.8908,-1.75453 7.0595,-1.5638 7.0595,0.42493 0,1.01628 -9.0749,6.04823 -10.9078,6.04823 -0.5358,0 -1.2645,-0.46971 -1.6193,-1.0438 z M 1052.572,878.07476 c -4.8464,-3.05763 -5.813,-4.64802 -3.3902,-5.57773 1.8252,-0.70042 11.1402,4.85239 11.1402,6.64087 0,2.43515 -2.8179,2.04859 -7.75,-1.06314 z m 381.25,-1.41063 c 0,-1.56034 9.9527,-7.7298 11.2132,-6.95079 1.7661,1.09155 0.5656,3.24887 -3.1918,5.73536 -4.3554,2.88226 -8.0214,3.43775 -8.0214,1.21543 z m -401.2317,-10.90041 c -4.668,-3.13939 -5.7586,-4.9521 -3.7324,-6.20432 1.5713,-0.9711 11.1113,5.52156 10.7615,7.32398 -0.4837,2.49219 -2.023,2.24698 -7.0291,-1.11966 z m 422.1994,-1.22097 c -0.7467,-0.8998 -0.9036,-1.86474 -0.3753,-2.30871 3.8556,-3.24039 8.5482,-6.15245 9.9142,-6.15245 2.9231,0 1.1617,3.24242 -3.6319,6.68565 -4.0896,2.93762 -4.7722,3.14279 -5.907,1.77551 z m -441.6803,-12.72726 c -4.0673,-3.12236 -5.6679,-6.7339 -2.9844,-6.7339 2.3643,0 9.697,6.11483 9.697,8.08651 0,2.73192 -1.8874,2.35161 -6.7126,-1.35261 z m 460.1137,-1.89384 c -0.7597,-1.22925 7.1782,-8.75731 9.2899,-8.81022 3.1263,-0.0783 2.3584,2.59232 -1.7685,6.15109 -4.6294,3.9921 -6.3267,4.59215 -7.5214,2.65913 z M 994.82487,836.46523 c -3.8966,-3.52028 -5.3151,-7.38364 -2.7111,-7.38364 1.9491,0 10.04133,8.65192 9.26583,9.90672 -1.0955,1.77263 -2.32283,1.30022 -6.55473,-2.52308 z M 1219.822,834.0134 c -33.7509,-3.72679 -60.491,-11.33156 -89.5,-25.45341 -23.6979,-11.53636 -41.6567,-23.72513 -61.9351,-42.03578 -19.1102,-17.25593 -40.0602,-44.03269 -52.9458,-67.67154 -31.46683,-57.72663 -39.59333,-128.44251 -22.09673,-192.28264 4.799,-17.50997 9.51553,-29.83924 17.97543,-46.98844 12.4337,-25.20466 26.4655,-45.14534 46.0022,-65.37392 39.1883,-40.57617 86.9425,-65.79505 143.5,-75.78192 17.8327,-3.14888 50.8277,-4.29111 69.6165,-2.41001 106.7168,10.68424 196.3915,86.67748 224.861,190.55429 24.5764,89.67202 -1.0176,185.97723 -66.9775,252.02308 -39.7363,39.78811 -89.8329,65.06399 -145.9321,73.62912 -15.0991,2.3053 -49.0974,3.27859 -62.5679,1.79117 z m 140.4003,-100.48697 c 16.7017,-1.77288 34.5194,-11.01541 48.0997,-24.95073 30.7276,-31.53082 31.3673,-81.25538 1.4775,-114.83646 -9.6283,-10.81734 -26.3236,-20.78864 -41.4775,-24.77247 -11.2359,-2.95382 -29.8345,-2.94697 -40.946,0.0151 -24.1749,6.4444 -43.5658,22.31663 -54.6513,44.73433 -25.8688,52.31345 8.2464,113.96343 66.5973,120.34847 6.9064,0.75573 9.2885,0.69439 20.9003,-0.5382 z m -26.8396,-13.02574 c -21.1369,-4.74192 -38.5167,-17.79861 -48.4117,-36.36965 -5.6864,-10.6721 -8.149,-20.81083 -8.149,-33.54945 0,-19.98726 6.6548,-36.24454 20.4672,-50 9.1921,-9.15425 17.5802,-14.41071 29.0328,-18.19373 7.0286,-2.32169 9.6391,-2.64616 21.5,-2.67227 11.8803,-0.0262 14.4198,0.27803 21.1666,2.53546 27.4414,9.18162 46.6065,32.32843 49.7447,60.07954 3.8356,33.91838 -15.7973,64.67751 -48.4705,75.93949 -10.8305,3.73311 -26.0734,4.65504 -36.8801,2.23061 z m 38.2043,-25.03051 c 2.1261,-2.37952 2.225,-3.10503 1.6122,-11.82324 l -0.6529,-9.28816 10.2241,-0.72485 c 14.7402,-1.04504 14.1764,-0.0917 13.4822,-22.79674 -0.307,-10.04058 -0.7551,-19.23663 -0.9959,-20.43567 -0.9183,-4.57353 -2.8834,-5.31993 -14.0061,-5.31993 h -10.4286 v -9.27749 c 0,-7.03534 -0.4023,-9.85176 -1.6644,-11.65368 l -1.6643,-2.37618 -20.5857,0.62644 c -20.1804,0.61411 -20.6273,0.67422 -22.7015,3.05353 -1.9275,2.21102 -2.0712,3.28171 -1.6137,12.02723 l 0.5021,9.60015 -5.3863,0.009 c -2.9624,0.005 -7.782,0.29641 -10.7102,0.64805 -8.0833,0.97074 -8.1601,1.22637 -7.3511,24.49278 0.8636,24.83497 0.2512,23.85017 14.8301,23.85017 h 10.345 v 9.5 c 0,8.37383 0.2537,9.75368 2.14,11.64 2.0929,2.09291 2.5825,2.12508 22.25,1.46183 19.8751,-0.67025 20.1364,-0.70778 22.375,-3.21324 z m -34.0983,-10.05526 c -0.3667,-0.36666 -0.6667,-4.54154 -0.6667,-9.27749 0,-12.60945 -0.4585,-13.05584 -13.4085,-13.05584 h -10.2951 l -0.6422,-8.25 c -0.3532,-4.5375 -0.6449,-9.64452 -0.6482,-11.34894 l -0.01,-3.09894 10.25,-0.61769 c 13.7539,-0.82886 14.2513,-1.38635 13.325,-14.93443 l -0.6666,-9.75 h 12.0458 12.0458 v 9.5 c 0,12.96001 0.5544,13.5 13.8607,13.5 h 9.8607 l 0.6306,5.25 c 0.3468,2.8875 0.6345,8.02033 0.6393,11.40629 l 0.01,6.1563 -10.0898,0.3437 c -13.5583,0.46186 -14.0591,1.02656 -13.214,14.89869 l 0.6089,9.94502 H 1349.64 c -6.3164,0 -11.7844,-0.3 -12.151,-0.66667 z m -82.3162,35.06276 c 6.1322,-3.08215 12.1825,-6.55482 13.445,-7.71704 2.9757,-2.73936 2.5432,-6.35777 -1.0821,-9.0527 l -2.7866,-2.07145 -11.3715,5.72396 -11.3715,5.72395 -7.8419,-3.3628 c -37.5012,-16.08143 -77.796,-41.26659 -105.4415,-65.90327 -30.04,-26.77053 -49.2408,-56.34913 -56.9539,-87.73674 -3.3336,-13.5658 -3.3924,-35.93544 -0.1245,-47.39503 9.6192,-33.73166 35.8221,-58.44004 69.0966,-65.15541 12.5899,-2.54087 31.6779,-1.63555 43.0814,2.04328 16.7768,5.41231 27.9608,12.47324 40.2049,25.38324 9.3826,9.89283 10.9928,10.2276 16.4953,3.42936 12.0091,-14.83708 21.087,-22.37134 34.7998,-28.8825 15.7267,-7.46739 31.1552,-10.17028 47.7894,-8.37213 31.899,3.44828 58.8279,22.94765 72.1674,52.25676 5.9943,13.17056 7.0511,19.10856 6.9749,39.19243 -0.062,16.2364 -0.3301,18.97389 -2.7406,27.93991 -2.4013,8.93195 -2.5238,10.16648 -1.2083,12.17416 4.0766,6.22178 10.0987,3.05168 12.7599,-6.717 2.5798,-9.47013 4.7578,-25.51804 4.7535,-35.02541 -0.023,-51.07421 -36.5942,-93.78927 -87.2466,-101.90446 -10.5199,-1.68544 -28.8942,-0.74331 -39.7496,2.03815 -17.6838,4.53107 -38.5582,16.94659 -49.9139,29.68741 l -4.9964,5.60577 -6.1077,-5.65469 c -39.6896,-36.74559 -100.1131,-36.63153 -139.2596,0.26286 -9.3558,8.8175 -15.9403,17.79754 -21.699,29.5933 -11.1962,22.93356 -13.4183,46.31085 -6.9792,73.42289 9.0463,38.08994 35.4171,74.65146 77.4558,107.38784 10.153,7.90637 35.9423,25.04189 48,31.89329 18.5039,10.51425 52.9608,26.74529 56.8505,26.77964 1.0178,0.009 6.8678,-2.50542 13,-5.58757 z m 236.6495,112.72437 c 0,-1.03374 1.9773,-3.4998 4.394,-5.48013 3.8135,-3.12488 4.5587,-3.4022 5.6403,-2.09902 1.0394,1.25239 0.5521,2.16175 -2.9362,5.48012 -4.531,4.31022 -7.0981,5.06937 -7.0981,2.09903 z M 976.50857,818.89308 c -3.3581,-4.0427 -3.8459,-6.81149 -1.2001,-6.81149 1.4337,0 8.5135,8.24804 8.5135,9.9183 0,2.5124 -4.0884,0.77559 -7.3134,-3.10681 z m 532.31343,-2.60854 c 0,-2.3052 7.4699,-9.64856 8.9097,-8.75874 1.9212,1.18735 1.1832,3.05919 -2.7019,6.85284 -4.1506,4.05295 -6.2078,4.68455 -6.2078,1.9059 z M 961.36827,801.86472 c -3.4699,-4.0538 -4.1946,-6.73515 -2.0164,-7.46023 1.5619,-0.51992 8.7349,8.5447 8.0904,10.22401 -0.8952,2.33307 -2.2318,1.7249 -6.074,-2.76378 z M 1524.31,799.06225 c -0.8306,-1.34394 6.4173,-11.17876 7.8795,-10.69194 2.1941,0.73045 1.6594,3.31274 -1.5509,7.48963 -3.2235,4.19419 -5.1219,5.15478 -6.3286,3.20231 z m -578.31963,-16.5686 c -3.0786,-4.19935 -3.6185,-7.41206 -1.2456,-7.41206 1.3966,0 8.2002,9.13054 7.769,10.42607 -0.8148,2.4473 -3.393,1.25608 -6.5234,-3.01401 z m 593.19893,-2.89714 c -0.7935,-2.068 4.7338,-10.51094 6.8827,-10.51313 2.4956,-0.003 2.1835,1.6475 -1.3543,7.16066 -3.2375,5.04528 -4.5689,5.85267 -5.5284,3.35247 z M 932.50877,762.44835 c -2.6453,-4.37952 -2.956,-7.36676 -0.7663,-7.36676 1.3322,0 7.0795,8.46757 7.0795,10.43018 0,3.21653 -3.5648,1.48677 -6.3132,-3.06342 z m 619.49683,-2.6762 c -0.6524,-0.80703 -6e-4,-2.8818 2.0234,-6.44056 4.8274,-8.48761 8.1405,-6.17163 3.5553,2.48529 -2.4513,4.62805 -4.0934,5.79231 -5.5787,3.95527 z M 923.06537,745.83159 c -0.5508,-0.6875 -1.9729,-3.17793 -3.1602,-5.5343 -2.1404,-4.24764 -2.0688,-6.21664 0.2258,-6.21468 1.6522,10e-4 6.9908,9.77528 6.3093,11.5511 -0.6827,1.77909 -2.0441,1.85892 -3.3749,0.19788 z m 640.72713,-6.76822 c -1.2,-0.74164 -0.99,-1.79154 1.2869,-6.43402 1.5114,-3.08183 3.3924,-5.54776 4.2317,-5.54776 2.0336,0 1.9022,1.86119 -0.5176,7.33146 -2.3208,5.24657 -3.0057,5.88347 -5.001,4.65032 z M 909.87977,719.50779 c -1.5981,-3.85558 -1.9899,-5.89412 -1.2712,-6.61287 1.5452,-1.54516 2.9254,-0.25269 5.1849,4.85521 2.5035,5.65962 2.552,7.33146 0.2125,7.33146 -1.2611,0 -2.5219,-1.70303 -4.1262,-5.5738 z m 663.34113,-2.82891 c -0.9256,-2.41228 3.6079,-11.59729 5.7242,-11.59729 2.4331,0 2.3702,0.82754 -0.5681,7.47149 -2.4224,5.47739 -4.117,6.83345 -5.1561,4.1258 z M 903.08947,701.83159 c -1.3299,-1.70097 -3.2675,-7.61448 -3.2675,-9.97255 0,-3.66627 3.1795,-1.34917 5.108,3.72255 1.8575,4.88482 1.8734,7.5 0.046,7.5 -0.4999,0 -1.3488,-0.5625 -1.8863,-1.25 z m 678.57463,-7.24121 c -0.9616,-0.96159 2.4721,-11.69215 3.9191,-12.24741 2.5873,-0.99281 3.0372,1.24196 1.3552,6.73134 -1.5095,4.92643 -3.6379,7.15243 -5.2743,5.51607 z m -686.86441,-17.0675 c -0.5351,-1.40729 -1.2565,-4.33229 -1.6031,-6.5 -0.5201,-3.25266 -0.3415,-3.94129 1.0223,-3.94129 1.8322,0 3.2737,3.0883 4.22848,9.05871 0.5201,3.25266 0.3415,3.94129 -1.02238,3.94129 -0.9089,0 -2.0903,-1.15142 -2.6253,-2.55871 z m 693.62711,-6.27172 c -0.5239,-0.84761 1.845,-10.95275 2.7888,-11.89655 0.2861,-0.28605 1.2256,-0.24939 2.0878,0.0815 1.6211,0.62207 1.5045,2.31044 -0.6488,9.3955 -0.9275,3.05197 -3.0768,4.28197 -4.2278,2.41957 z M 889.31679,655.83159 c -1.6514,-4.66548 -2.4718,-11.17298 -1.5278,-12.11707 1.8536,-1.85355 3.9205,1.54436 4.6333,7.61707 0.5838,4.97291 0.4495,5.75 -0.994,5.75 -0.918,0 -1.8682,-0.5625 -2.1115,-1.25 z m 704.86401,-7.79122 c -1.1946,-1.19451 0.1322,-10.77679 1.718,-12.40878 2.0887,-2.14943 3.1856,1.21361 2.2979,7.04482 -0.88,5.78002 -2.0445,7.33541 -4.0159,5.36396 z m -37.3588,-51.78248 v -7.82369 l 4.75,-1.42631 4.75,-1.4263 0.2844,-10.19666 0.2844,-10.19666 -5.1517,-1.80334 -5.1516,-1.80334 0.6187,-7.41812 c 0.3403,-4.07997 0.7909,-7.59037 1.0015,-7.80089 0.2105,-0.21052 12.2473,4.18742 26.7485,9.77321 14.5012,5.58578 28.7487,11.04866 31.6612,12.13972 l 5.2954,1.98376 -0.2954,6.08217 -0.2954,6.08216 -31.5,10.82477 c -17.325,5.95363 -31.8375,10.82667 -32.25,10.829 -0.4125,0.002 -0.75,-3.51644 -0.75,-7.81948 z m 32.6218,-17.34076 c 4.0971,-1.19046 7.0958,-2.49302 6.6637,-2.89459 -0.7107,-0.6606 -14.794,-5.94095 -15.8451,-5.94095 -0.2422,0 -0.4404,2.475 -0.4404,5.5 0,3.29134 0.4362,5.5 1.0863,5.5 0.5975,0 4.4385,-0.97401 8.5355,-2.16446 z m -715.04441,21.99414 c -0.2315,-0.73132 -0.6356,-10.66718 -0.8979,-22.07968 l -0.4771,-20.75 4.6488,-0.0136 c 2.5568,-0.008 5.6613,-0.285 6.8988,-0.61664 2.2233,-0.59581 2.25,-0.48449 2.25,9.37409 0,5.48738 0.2891,12.08616 0.6424,14.66395 l 0.6424,4.68689 5.1076,-0.29732 5.10758,-0.29737 0.2808,-12.25 0.2807,-12.25 h 6.3225 6.3225 l 0.6467,7.65088 c 0.3557,4.20798 0.6468,9.60798 0.6468,12 v 4.34912 h 6.1447 6.1448 l -0.705,-14.5 -0.7049,-14.5 h 6.9041 6.904 l 0.6561,15.15899 c 0.3609,8.33745 0.6562,18.18664 0.6562,21.8871 v 6.7281 l -25.75,0.63353 c -14.1625,0.34845 -28.56288,0.88511 -32.00078,1.19259 -4.7058,0.42087 -6.3549,0.23038 -6.6718,-0.77063 z m 56.38678,-55.15748 c -0.2553,-0.23265 -13.1789,-2.36763 -28.7191,-4.7444 -23.80068,-3.64016 -28.18678,-4.56627 -27.82238,-5.87461 0.2379,-0.85425 0.7265,-3.87275 1.0857,-6.70776 l 0.653,-5.15457 12.6886,-5.5496 c 21.52548,-9.41464 22.33028,-9.79431 21.82678,-10.29775 -0.2691,-0.26915 -7.1076,-1.55764 -15.19658,-2.8633 -8.089,-1.30566 -14.9489,-2.61556 -15.2443,-2.91091 -0.5852,-0.5852 1.3552,-13.49373 2.1474,-14.28598 0.2677,-0.2677 14.5785,1.72426 31.80168,4.42658 l 31.315,4.91331 -0.3531,4.89429 c -0.6146,8.52085 -0.5039,8.42536 -19.0568,16.44357 -9.4199,4.07108 -16.7813,7.71205 -16.3586,8.09104 0.4227,0.37899 7.5185,1.69045 15.7685,2.91436 8.25,1.2239 15.0627,2.29464 15.1394,2.37941 0.077,0.0848 -0.3811,3.30412 -1.0174,7.15412 l -1.1568,7 -3.5183,0.29759 c -1.9351,0.16368 -3.7273,0.10725 -3.9827,-0.12539 z m 637.53583,-3.73316 c -12.2833,-3.60549 -19.4583,-22.13097 -13.4102,-34.62453 4.2901,-8.86227 11.2876,-12.30877 29.8786,-14.7163 12.027,-1.55749 17.7917,-0.78438 23.5316,3.15591 9.012,6.18646 12.571,21.76307 7.3207,32.03962 -2.2923,4.4866 -10.2411,11.20626 -13.2561,11.20626 -0.7287,0 -1.6676,-2.88197 -2.3621,-7.25 -1.053,-6.62267 -0.9945,-7.38338 0.6756,-8.7914 7.0951,-5.98183 3.4051,-15.9586 -5.9025,-15.9586 -4.6358,0 -19.457,2.67213 -23.3486,4.20955 -1.7369,0.68617 -3.4229,2.45091 -4.2634,4.46272 -1.8927,4.52988 0.1236,9.60473 4.4099,11.09893 2.7063,0.94341 3.0943,1.64887 4.1076,7.46723 0.6154,3.53397 1.1189,6.95104 1.1189,7.59348 0,1.34162 -4.1175,1.39351 -8.5,0.10713 z m -23.9697,-60.18904 c -2.0772,-7.67357 -2.0421,-8.09517 0.7387,-8.87825 1.227,-0.34554 14.5804,-4.28304 29.6741,-8.75 15.0938,-4.46696 27.9606,-8.12175 28.5931,-8.12175 1.6491,0 5.6207,14.01582 4.1186,14.53482 -5.7946,2.0021 -58.9286,17.46518 -60.0136,17.46518 -0.8937,0 -2.0455,-2.31418 -3.1109,-6.25 z M 928.32197,465.97077 c -12.1,-4.33337 -22.4563,-7.71107 -23.0139,-7.50601 -0.5576,0.20506 -2.0415,3.56344 -3.2974,7.46305 l -2.2836,7.09022 -5.70258,-2.09172 c -3.1364,-1.15044 -6.0333,-2.38943 -6.4376,-2.75332 -0.4043,-0.36388 2.7469,-10.57092 7.0027,-22.6823 l 7.73778,-22.0207 6.2473,1.99834 c 3.436,1.09909 6.2473,2.53313 6.2473,3.18674 0,0.65362 -1.107,4.12925 -2.4599,7.72363 l -2.4598,6.53523 2.7098,0.96561 c 1.4904,0.53108 11.9349,4.19785 23.2099,8.14838 11.275,3.95053 20.8288,7.50505 21.2307,7.89894 1.2938,1.26802 -3.47,14.16737 -5.1846,14.03875 -0.8504,-0.0638 -11.4461,-3.66147 -23.5461,-7.99484 z m 637.42143,-17.25631 c -7.0634,-2.52514 -10.1062,-5.72659 -14.5665,-15.32576 l -2.8549,-6.14418 -9.8804,4.41854 c -5.4343,2.43019 -10.2673,4.41853 -10.7401,4.41853 -0.8062,0 -7.1983,-13.0453 -6.6384,-13.54806 0.6067,-0.54476 56.3869,-25.3502 57.6491,-25.63655 1.8847,-0.42756 13.0465,24.16723 13.809,30.42775 1.1672,9.58246 -5.6114,19.23829 -15.2006,21.65288 -5.4684,1.37698 -7.0927,1.34006 -11.5772,-0.26315 z m 10.2498,-16.28786 c 1.0059,-0.91024 1.8288,-2.89793 1.8288,-4.41709 0,-2.55779 -3.4094,-11.92792 -4.34,-11.92792 -1.541,0 -11.66,5.16667 -11.66,5.95346 0,1.48122 3.2283,8.31315 4.8655,10.29654 1.8251,2.21118 6.91,2.2631 9.3057,0.095 z m -637.92123,-9.38585 c -15.5375,-7.66536 -28.25,-14.17983 -28.25,-14.4766 0,-0.51601 5.9443,-12.65204 6.5097,-13.29043 0.2583,-0.29169 56.4912,27.56197 57.4391,28.45113 0.6417,0.60199 -5.7765,13.36725 -6.6895,13.30482 -0.4176,-0.0285 -13.4718,-6.32357 -29.0093,-13.98892 z m 14.6426,-28.256 -26.6074,-18.20316 5.0342,-7.5 c 9.3793,-13.97322 12.6712,-17.91019 17.1898,-20.55826 5.9487,-3.48618 14.2017,-3.64697 20.5846,-0.40103 6.2409,3.17371 23.1019,15.43048 24.9892,18.16539 3.8115,5.52334 4.9239,13.50457 2.7726,19.89468 -1.0214,3.03408 -13.399,22.55144 -16.2366,25.60238 -0.8551,0.91934 -7.3955,-3.09082 -27.7264,-17 z m 27.5652,-7.04102 c 4.9967,-8.52617 3.1797,-11.836 -11.8361,-21.56018 -8.2323,-5.3312 -11.6887,-6.14417 -15.3172,-3.60271 -2.9342,2.05522 -6.7641,8.45003 -5.6813,9.48615 1.8462,1.76666 28.738,20.0146 29.4953,20.0146 0.4384,0 1.9411,-1.95204 3.3393,-4.33786 z m 534.71493,16.45599 c -10.8406,-3.79129 -17.717,-14.22926 -16.9817,-25.77716 0.5268,-8.27358 3.8267,-13.00092 14.3491,-20.55649 13.3275,-9.56966 17.0071,-11.25956 24.4599,-11.23336 13.825,0.0486 24.25,10.84024 24.25,25.10291 0,8.95068 -3.0884,13.76597 -14.0074,21.83987 -15.3448,11.34655 -22.8732,13.84058 -32.0699,10.62423 z m 17.9968,-19.79357 c 10.6096,-7.10663 13.8305,-10.42974 13.8305,-14.26956 0,-3.88651 -4.6781,-9.055 -8.1959,-9.055 -5.3147,0 -25.0833,13.99176 -26.2313,18.56599 -1.5776,6.28564 4.4057,12.16093 10.581,10.3899 1.5471,-0.44372 6.0542,-2.97782 10.0157,-5.63133 z M 1006.074,368.83159 c -13.09413,-27.56018 -27.25203,-58.31348 -27.25203,-59.19595 0,-0.63148 1.7492,-2.85624 3.8872,-4.94391 l 3.8872,-3.79575 30.86283,14.28242 c 16.9745,7.85534 31.0666,14.4384 31.3157,14.62904 0.2491,0.19064 -2.1105,2.91 -5.2435,6.04303 l -5.6965,5.69643 -4.5144,-2.4661 -4.5144,-2.4661 -7.2051,7.2051 -7.2051,7.2051 2.2755,4.68366 2.2755,4.68365 -5.2783,5.34469 c -2.9031,2.93958 -5.5589,5.34469 -5.9019,5.34469 -0.343,0 -1.1047,-1.0125 -1.6927,-2.25 z m 9.4967,-38.0039 c -0.4303,-1.29097 -14.7487,-8.79432 -14.7487,-7.72886 0,0.52232 1.672,4.32872 3.7155,8.45868 l 3.7156,7.50901 3.7963,-3.70697 c 2.0879,-2.03883 3.6725,-4.07817 3.5213,-4.53186 z m 464.4743,32.99961 -6.2769,-6.35393 4.4678,-12.59444 c 4.2479,-11.97468 4.3807,-12.67326 2.6982,-14.19589 -0.9733,-0.8808 -2.1748,-1.60145 -2.67,-1.60145 -0.4952,0 -4.5222,3.603 -8.9488,8.00666 l -8.0485,8.00666 -5.4724,-5.55571 -5.4724,-5.5557 22.7552,-22.54997 22.7552,-22.54998 3.2448,2.86276 c 1.7846,1.57451 7.1116,6.95033 11.8376,11.94626 6.8025,7.19091 8.8324,10.03475 9.7424,13.64906 1.9835,7.87717 -1.0276,16.49674 -7.4831,21.42053 -3.0511,2.32722 -4.8564,2.85691 -10.7592,3.15689 l -7.0929,0.36047 -4.5,13.95086 -4.5,13.95085 z m 23.5545,-37.30241 c 3.568,-2.49915 2.9989,-7.57808 -1.3939,-12.44042 -1.989,-2.20158 -4.1453,-4.00288 -4.7918,-4.00288 -0.6465,0 -3.1816,2.04987 -5.6336,4.55527 l -4.4582,4.55527 4.6918,4.44473 c 5.025,4.76044 7.8921,5.47512 11.5857,2.88803 z m 58.1729,26.78429 c -1.2314,-1.79982 -2.022,-3.48929 -1.757,-3.75437 0.2651,-0.26508 3.6866,-1.57192 7.6033,-2.90408 l 7.1213,-2.42211 3.3429,4.67648 c 1.8385,2.57207 3.6643,5.20794 4.0573,5.85749 0.5245,0.86691 -1.7912,1.26583 -8.7072,1.5 l -9.4217,0.319 z m -526.4899,-51.97759 c -9.732,-14.1625 -17.8573,-26.2 -18.0562,-26.75 -0.3674,-1.01576 18.1966,-13.91215 24.5957,-17.08669 5.2313,-2.5952 13.6398,-2.29853 18.9905,0.67002 4.7363,2.62768 14.6543,15.05534 19.9968,25.05665 5.3078,9.93655 3.7726,20.09677 -4.1497,27.46365 -3.2895,3.05885 -22.1232,16.39637 -23.153,16.39637 -0.2912,0 -8.492,-11.5875 -18.2241,-25.75 z m 28.9006,1.43011 c 2.8281,-2.63363 4.6389,-5.18643 4.6389,-6.53984 0,-2.96532 -2.802,-8.17783 -8.9234,-16.60026 -4.9547,-6.81711 -8.0189,-9.43362 -11.1308,-9.50457 -2.6061,-0.0594 -11.1835,5.90289 -10.6167,7.37988 0.8844,2.30466 19.9739,29.58468 20.7022,29.58468 0.3801,0 2.7785,-1.94395 5.3298,-4.31989 z m 360.8642,13.07301 c -3.3457,-2.29594 -5.7943,-4.64213 -5.4414,-5.21377 0.3528,-0.57164 6.8458,-9.88702 14.4288,-20.70083 7.583,-10.81382 13.7873,-19.86112 13.7873,-20.10511 0,-0.244 -2.7,-2.33757 -6,-4.65239 -3.3,-2.31482 -6,-4.52352 -6,-4.90824 0,-0.38471 1.6022,-3.07863 3.5605,-5.98648 l 3.5604,-5.28701 4.6896,3.33961 c 2.5792,1.83679 11.3138,7.99979 19.4103,13.69555 l 14.7207,10.35594 -1.6954,2.87016 c -0.9325,1.57858 -2.6781,4.10074 -3.8792,5.6048 l -2.1836,2.73465 -6.1649,-4.25 c -3.3907,-2.3375 -6.4695,-4.23835 -6.8417,-4.22412 -0.3722,0.0142 -6.9097,9.01582 -14.5279,20.00351 -7.6181,10.9877 -14.1863,20.18475 -14.5959,20.43789 -0.4096,0.25314 -3.482,-1.41823 -6.8276,-3.71416 z m -32.3539,-20.36215 -5.6286,-2.56853 -2.2682,-17.16122 c -1.2475,-9.43867 -2.6058,-18.06122 -3.0184,-19.16122 -0.7102,-1.89323 -0.8043,-1.86654 -1.7634,0.5 -0.5572,1.375 -3.1245,7 -5.7051,12.5 -2.5805,5.5 -5.0803,11.00069 -5.5551,12.22376 l -0.8632,2.22376 -6.7611,-3.03354 c -3.7187,-1.66844 -6.9122,-3.18449 -7.0967,-3.369 -0.2976,-0.29763 25.5133,-57.46736 26.3807,-58.43175 0.8792,-0.97744 11.6521,4.59472 12.3478,6.38677 0.4271,1.1 1.8108,9.7625 3.0748,19.25 1.2641,9.4875 2.5653,17.24824 2.8917,17.24608 0.3264,-0.002 3.4657,-6.41465 6.9762,-14.25 3.5106,-7.83534 6.495,-14.38054 6.6321,-14.54487 0.4498,-0.53911 13.4851,6.20914 13.4851,6.98111 0,1.5331 -25.8104,57.25374 -26.6395,57.5106 -0.4733,0.14662 -3.3934,-0.88926 -6.4891,-2.30195 z m -293.6802,-3.64615 c -1.0438,-2.33465 -6.9138,-15.30889 -13.0445,-28.83164 -6.1307,-13.52275 -11.1385,-24.99775 -11.1285,-25.5 0.014,-0.71124 30.3649,-14.98221 38.0785,-17.90457 1.5301,-0.5797 1.9742,0.17412 6.5529,11.12221 0.2601,0.62195 -0.7922,1.57736 -2.3384,2.12314 -1.5462,0.54577 -7.3758,3.11693 -12.9548,5.71368 l -10.1435,4.72136 2.1435,4.88193 c 1.179,2.68506 2.4783,4.89254 2.8873,4.9055 0.4091,0.013 5.2494,-2.00143 10.7563,-4.47643 5.5069,-2.475 10.2271,-4.5 10.4894,-4.5 0.7288,0 5.5106,9.75467 5.5106,11.24135 0,0.71932 -4.5307,3.30185 -10.0682,5.73898 -5.5374,2.43712 -10.2639,4.7479 -10.5031,5.13506 -0.3638,0.58857 3.0587,9.70533 3.9948,10.64146 0.1638,0.1638 5.796,-2.18948 12.516,-5.22951 6.7201,-3.04004 12.5681,-5.52734 12.9957,-5.52734 1.146,0 6.0968,11.38157 5.2701,12.11581 -0.6171,0.5482 -27.149,12.73734 -35.9108,16.49801 l -3.2055,1.37583 z m 240.6637,-18.42624 -5.645,-1.48292 -0.6538,-5.23278 -0.6538,-5.23277 -9.6312,-2.32186 -9.6311,-2.32185 -1.57,2.1016 c -0.8635,1.15588 -2.2735,3.08859 -3.1332,4.29491 l -1.5632,2.1933 -7.6923,-1.9081 -7.6922,-1.90811 18.6264,-28 c 10.2445,-15.4 18.9185,-28.32406 19.2755,-28.72013 0.6031,-0.66896 10.7528,1.53064 11.7737,2.55154 0.5195,0.51949 7.3086,60.69082 7.3248,64.91859 0.012,3.18895 -0.7317,3.27596 -9.1346,1.06858 z m -7.9732,-31.56858 c -0.065,-3.4375 -0.4032,-7.57809 -0.7514,-9.20131 -0.6305,-2.9391 -0.6504,-2.92463 -4.815,3.5 -5.6402,8.70108 -5.6504,9.03838 -0.3153,10.512 2.475,0.68363 4.8375,1.28714 5.25,1.34113 0.4125,0.054 0.6967,-2.71432 0.6317,-6.15182 z m -163.3456,26 c -1.1697,-3.64445 -10.7281,-54.84324 -10.8697,-58.22214 l -0.1664,-3.97215 18.5,-3.70253 c 10.175,-2.03639 19.5908,-3.84893 20.9241,-4.02786 2.6134,-0.35074 3.1191,0.65848 4.4059,8.79278 l 0.6514,4.1181 -13.8034,2.72862 -13.8035,2.72861 0.9507,5.90329 c 0.5229,3.2468 1.2891,5.90328 1.7026,5.90328 0.4136,0 5.1261,-0.9 10.4722,-2 13.7751,-2.83433 13.0523,-3.04995 14.2469,4.25 0.5626,3.4375 0.9278,6.35934 0.8117,6.49297 -0.1162,0.13364 -4.9019,1.17182 -10.6349,2.30707 -5.7331,1.13524 -10.9192,2.22356 -11.5248,2.41849 -0.7594,0.24442 -0.3967,4.02807 1.1686,12.19293 1.2483,6.5112 1.9688,12.11261 1.6011,12.44759 -0.6162,0.5613 -11.3877,2.89095 -13.3668,2.89095 -0.4755,0 -1.0451,-0.5625 -1.2657,-1.25 z m 98.6229,-7.31318 c -10.0876,-0.70702 -18.4652,-1.43205 -18.617,-1.61116 -0.1518,-0.17911 0.6594,-14.7296 1.8025,-32.33441 l 2.0784,-32.00876 7.5386,0.3678 c 4.1461,0.20228 7.6255,0.44328 7.7319,0.53554 0.1064,0.0923 -0.5066,11.06184 -1.3624,24.37685 -0.8557,13.315 -1.2944,24.89044 -0.9748,25.7232 0.4063,1.05874 2.0191,1.51592 5.3624,1.52011 2.6298,0.003 8.4939,0.295 13.0314,0.64822 l 8.25,0.64222 -0.011,3.10179 c -0.01,1.70598 -0.2899,4.78928 -0.6309,6.85178 -0.5407,3.27154 -0.954,3.73229 -3.2389,3.61116 -1.4406,-0.0764 -10.8727,-0.71732 -20.9602,-1.42434 z m -46.5885,-5.7511 c -0.9921,-10.67542 -3.7541,-57.83823 -3.4041,-58.12992 0.1835,-0.15297 3.5755,-0.56682 7.5378,-0.91968 l 7.2041,-0.64157 0.5052,3.25273 c 0.7478,4.81476 3.9262,60.75552 3.474,61.14354 -0.2131,0.18291 -3.6173,0.59087 -7.5648,0.90659 l -7.1773,0.57403 z"
       id="path958"
       inkscape:export-filename="../Desktop/imagem2.jpg"
       inkscape:export-xdpi="96"
       inkscape:export-ydpi="96" /></g></svg>
